# xmcd CD database file
#
# Track frame offsets:
#	150
#	17285
#	36855
#	53707
#	74853
#	87060
#	107626
#	123825
#	144678
#	159432
#	174959
#	188571
#	209758
#	228828
#
# Disc length: 3227 seconds
#
# Revision: 0
# Processed by: cddbd v1.5.1PL0 Copyright (c) Steve Scherf et al.
# Submitted via: CDex 1.51
#
DISCID=b50c990e
DTITLE=Matt Munisteri with Brockmumford - Love Story
DYEAR=2002
DGENRE=Jazz
TTITLE0=Lonely Acres In The West
TTITLE1=Let's Do Something Bad
TTITLE2=Sign Me Up
TTITLE3=Johnny
TTITLE4=Cry Cry Cry
TTITLE5=Mysterieuse
TTITLE6=Lazy Bones
TTITLE7=The Signifying Rag
TTITLE8=Lucky Ole Tramp
TTITLE9=Picciaridu
TTITLE10=Sparkle
TTITLE11=Sidestep (Hidaway)
TTITLE12=Don't Think Twice, It's All Right
TTITLE13=Orange Crate Art
EXTD=YEAR: 2002
EXTT0=
EXTT1=
EXTT2=
EXTT3=
EXTT4=
EXTT5=
EXTT6=
EXTT7=
EXTT8=
EXTT9=
EXTT10=
EXTT11=
EXTT12=
EXTT13=
PLAYORDER=
